<svg xmlns="http://www.w3.org/2000/svg" width="83" height="82" viewBox="0 0 83 82"><defs><style>.a{fill:rgba(225,213,255,0.64);}.b{fill:#2e1963;}</style></defs><g transform="translate(0.277)"><g transform="translate(0 0)"><ellipse class="a" cx="41.5" cy="41" rx="41.5" ry="41" transform="translate(-0.277)"/></g><g transform="translate(18.978 19.5)"><path class="b" d="M37.98,10.222a19.647,19.647,0,0,0-11.9-5.912l-.167,1.444A18.193,18.193,0,0,1,36.93,11.229ZM23.114,5.649c.464-.017.935-.017,1.4,0L24.569,4.2c-.5-.02-1.009-.02-1.51,0ZM5.636,23.814A18.16,18.16,0,0,1,21.715,5.755l-.167-1.444a19.634,19.634,0,0,0,0,39.006l.167-1.444A18.16,18.16,0,0,1,5.636,23.814ZM23.114,41.979l-.055,1.453c.25.01.5.015.755.015s.5,0,.755-.015l-.055-1.453C24.049,42,23.578,42,23.114,41.979Zm16.7-17.8h2.165a18.151,18.151,0,0,1-16.063,17.7l.167,1.444A19.609,19.609,0,0,0,43.438,24.177h2.19l-2.909-4.363Zm5.7-19.427a3.27,3.27,0,0,1-2.635-2.634.166.166,0,0,0-.316,0A3.268,3.268,0,0,1,39.926,4.75a.166.166,0,0,0,0,.316A3.268,3.268,0,0,1,42.561,7.7a.166.166,0,0,0,.316,0,3.268,3.268,0,0,1,2.635-2.634A.166.166,0,0,0,45.512,4.75ZM7.7,42.561a3.268,3.268,0,0,1-2.634-2.634.166.166,0,0,0-.316,0,3.268,3.268,0,0,1-2.635,2.634.166.166,0,0,0,0,.316,3.27,3.27,0,0,1,2.635,2.634.166.166,0,0,0,.316,0A3.268,3.268,0,0,1,7.7,42.877.166.166,0,0,0,7.7,42.561Z" transform="translate(-2 -2)"/><path class="b" d="M11,26.27A15.27,15.27,0,1,0,26.27,11,15.27,15.27,0,0,0,11,26.27Zm7.271-2.909h5.09v-5.09h5.817v5.09h5.09v5.817h-5.09v5.09H23.361v-5.09h-5.09Z" transform="translate(-4.456 -4.456)"/></g></g></svg>